<svg xmlns="http://www.w3.org/2000/svg" viewBox="0 0 140 35"><defs><style>.a{fill:#d90e0e;}</style></defs><path class="a" d="M1.28-6.985C1.28.866,6.7,5.88,13.868,5.88c3.659,0,7.318-1.114,9.709-3.394L20.844-1.667A9.432,9.432,0,0,1,14.551.764,6.421,6.421,0,0,1,7.769-4.909H25.284V-6.327c0-8-4.781-13.473-11.807-13.473C6.305-19.8,1.28-14.076,1.28-6.985Zm12.2-7.7a5.553,5.553,0,0,1,5.806,5.42H7.671C7.964-11.7,9.623-14.684,13.477-14.684ZM43.922,5.272h6.2v-15.8c0-7.041-4.928-9.269-10.294-9.269a15.118,15.118,0,0,0-10.294,3.849l2.342,4.305a9.725,9.725,0,0,1,6.879-2.887c3.122,0,5.172,1.621,5.172,4.1v3.394c-1.561-1.975-4.342-2.988-7.465-2.988-3.757,0-8.2,2.077-8.2,7.8a7.978,7.978,0,0,0,8.2,8.1,9.577,9.577,0,0,0,7.465-3.14Zm0-5.876a6.09,6.09,0,0,1-4.976,2.127c-2.439,0-4.44-1.317-4.44-3.6,0-2.33,2-3.7,4.44-3.7a6.09,6.09,0,0,1,4.976,2.127ZM55.241,5.272H74.463V-.35H63.486L74.268-14.532v-4.66H55.241v5.622H65.877L55.241.46Zm24.492,3.8-.927,5.774a16.34,16.34,0,0,0,3.074.355c4.049-.1,7.172-1.317,8.928-5.926l11.075-28.466H95.2L89.051-2.173,82.9-19.192H76.269L85.831,5.627,84.953,7.7c-.585,1.317-1.659,1.773-3.269,1.773A5.183,5.183,0,0,1,79.733,9.071Zm23-5.572a1.977,1.977,0,1,0,1.976-2.051A2.039,2.039,0,0,0,102.737,3.5Zm21.248,1.773h3.123V-3.566c0-2.507-1.293-3.7-3.464-3.7a4.956,4.956,0,0,0-4.049,2.229,3.123,3.123,0,0,0-3.269-2.229,5.091,5.091,0,0,0-3.854,1.9v-1.6h-3.1V5.272h3.1V-2.958A3.142,3.142,0,0,1,114.91-4.4c1.269,0,1.756.81,1.756,1.95V5.272h3.123V-2.984A3.106,3.106,0,0,1,122.228-4.4c1.269,0,1.756.81,1.756,1.95Zm6.221,1.9-.463,2.887a8.17,8.17,0,0,0,1.537.177c2.025-.051,3.586-.658,4.464-2.963L141.28-6.96h-3.342l-3.074,8.509L131.791-6.96h-3.318l4.781,12.41-.439,1.038a1.551,1.551,0,0,1-1.634.886A2.592,2.592,0,0,1,130.2,7.172Z" transform="translate(-1.28 19.8)"/></svg>